<svg version="1.2" xmlns="http://www.w3.org/2000/svg" viewBox="0 0 1024 1024" width="1024" height="1024"><style>.a{fill:#b457ea}.b{fill:#ffd648}</style><path class="a" d="m504 488m22.6 17c-38.1 9.1-232-324.3-134-409.4 34.9-30.3 109.9-31.5 153.5 0 116.5 84.3 16.7 400.7-19.5 409.4z"/><path class="a" d="m529.2 478.3m-3.4 28c-27-28.4 164.8-363 287.5-320.7 43.7 15.2 82.3 79.4 76.8 133-14.8 143-338.7 214.8-364.3 187.7z"/><path class="a" d="m550.2 495.3m-26 11.1c11.2-37.6 396.9-38.8 421.5 88.6 8.8 45.4-27.6 110.9-76.7 132.9-131.3 58.8-355.4-185.8-344.8-221.5z"/><path class="a" d="m548.1 524.4m-22.6-17c38.1-9.1 232 324.3 134 409.3-34.9 30.3-109.9 31.6-153.5 0-116.5-84.3-16.7-400.6 19.5-409.3z"/><path class="a" d="m522.5 534m3.4-28.1c27 28.5-164.8 363.1-287.5 320.7-43.7-15.1-82.3-79.3-76.7-132.9 14.7-143.1 338.6-214.8 364.2-187.8z"/><path class="a" d="m500 517m26-11.1c-11.1 37.6-396.8 38.8-421.5-88.6-8.7-45.5 27.6-111 76.8-133 131.2-58.7 355.3 185.9 344.7 221.6z"/><path class="b" d="m453 438.2c8.8 0.9 15.5 53.2 27 50.4 9.4-2.3 5.1-41.2 15.9-44 12.7-3.3 18.8 41.5 32.7 44 25.2 4.5 29.3-86 37.8-91.8 14-9.6 27 146.2-19.2 162.5-31.8 11.3-84-4.8-102.6-46.8-12.3-27.8-3.2-75.6 8.4-74.3z"/></svg>